<svg width="99" height="34" viewBox="0 0 99 34" fill="none" xmlns="http://www.w3.org/2000/svg">
<circle cx="17" cy="17" r="17" fill="#1E50FF"/>
<path d="M20.6908 9.90227C19.1767 9.11494 17.4505 8.83242 15.7644 9.09599C14.0783 9.35956 12.5207 10.1554 11.3191 11.3673C10.1175 12.5791 9.33498 14.1435 9.08576 15.8317C8.83655 17.52 9.13374 19.2437 9.93393 20.7511C10.7341 22.2584 11.9954 23.4704 13.5334 24.2099C15.0714 24.9494 16.8056 25.1777 18.4826 24.8614C20.1596 24.5451 21.6916 23.7009 22.8546 22.452C24.0176 21.2031 24.7508 19.615 24.947 17.9197L20.9735 17.4599C20.8754 18.3075 20.5088 19.1015 19.9273 19.726C19.3458 20.3504 18.5798 20.7726 17.7413 20.9307C16.9028 21.0888 16.0357 20.9747 15.2667 20.6049C14.4977 20.2352 13.8671 19.6292 13.467 18.8755C13.0669 18.1219 12.9183 17.26 13.0429 16.4159C13.1675 15.5717 13.5588 14.7896 14.1596 14.1836C14.7604 13.5777 15.5392 13.1798 16.3822 13.048C17.2253 12.9162 18.0884 13.0575 18.8454 13.4511L20.6908 9.90227Z" fill="white"/>
<path d="M47.968 25.336C45.888 25.336 44.24 24.76 43.024 23.608C41.808 22.44 41.2 20.776 41.2 18.616V14.584C41.2 12.424 41.808 10.768 43.024 9.616C44.24 8.448 45.888 7.864 47.968 7.864C50.032 7.864 51.624 8.432 52.744 9.568C53.88 10.688 54.448 12.232 54.448 14.2V14.344H51.328V14.104C51.328 13.112 51.048 12.296 50.488 11.656C49.944 11.016 49.104 10.696 47.968 10.696C46.848 10.696 45.968 11.04 45.328 11.728C44.688 12.416 44.368 13.352 44.368 14.536V18.664C44.368 19.832 44.688 20.768 45.328 21.472C45.968 22.16 46.848 22.504 47.968 22.504C49.104 22.504 49.944 22.184 50.488 21.544C51.048 20.888 51.328 20.072 51.328 19.096V18.664H54.448V19C54.448 20.968 53.88 22.52 52.744 23.656C51.624 24.776 50.032 25.336 47.968 25.336ZM57.1253 25V13.096H60.1013V14.44H60.5333C60.7093 13.96 60.9973 13.608 61.3973 13.384C61.8133 13.16 62.2933 13.048 62.8373 13.048H64.2773V15.736H62.7893C62.0213 15.736 61.3893 15.944 60.8933 16.36C60.3973 16.76 60.1493 17.384 60.1493 18.232V25H57.1253ZM70.0557 25.336C69.2077 25.336 68.4477 25.192 67.7757 24.904C67.1037 24.6 66.5677 24.168 66.1677 23.608C65.7837 23.032 65.5917 22.336 65.5917 21.52C65.5917 20.704 65.7837 20.024 66.1677 19.48C66.5677 18.92 67.1117 18.504 67.7997 18.232C68.5037 17.944 69.3037 17.8 70.1997 17.8H73.4637V17.128C73.4637 16.568 73.2877 16.112 72.9357 15.76C72.5837 15.392 72.0237 15.208 71.2557 15.208C70.5037 15.208 69.9437 15.384 69.5757 15.736C69.2077 16.072 68.9677 16.512 68.8557 17.056L66.0717 16.12C66.2637 15.512 66.5677 14.96 66.9837 14.464C67.4157 13.952 67.9837 13.544 68.6877 13.24C69.4077 12.92 70.2797 12.76 71.3037 12.76C72.8717 12.76 74.1117 13.152 75.0237 13.936C75.9357 14.72 76.3917 15.856 76.3917 17.344V21.784C76.3917 22.264 76.6157 22.504 77.0637 22.504H78.0237V25H76.0077C75.4157 25 74.9277 24.856 74.5437 24.568C74.1597 24.28 73.9677 23.896 73.9677 23.416V23.392H73.5117C73.4477 23.584 73.3037 23.84 73.0797 24.16C72.8557 24.464 72.5037 24.736 72.0237 24.976C71.5437 25.216 70.8877 25.336 70.0557 25.336ZM70.5837 22.888C71.4317 22.888 72.1197 22.656 72.6477 22.192C73.1917 21.712 73.4637 21.08 73.4637 20.296V20.056H70.4157C69.8557 20.056 69.4157 20.176 69.0957 20.416C68.7757 20.656 68.6157 20.992 68.6157 21.424C68.6157 21.856 68.7837 22.208 69.1197 22.48C69.4557 22.752 69.9437 22.888 70.5837 22.888ZM81.3355 25V15.592H78.3115V13.096H81.3355V10.888C81.3355 10.072 81.5755 9.424 82.0555 8.944C82.5515 8.448 83.1915 8.2 83.9755 8.2H87.0955V10.696H85.0315C84.5835 10.696 84.3595 10.936 84.3595 11.416V13.096H87.4795V15.592H84.3595V25H81.3355ZM94.1463 25C93.3623 25 92.7223 24.76 92.2263 24.28C91.7463 23.784 91.5063 23.128 91.5063 22.312V15.592H88.5303V13.096H91.5063V9.4H94.5303V13.096H97.7943V15.592H94.5303V21.784C94.5303 22.264 94.7543 22.504 95.2023 22.504H97.5063V25H94.1463Z" fill="white"/>
</svg>
